<svg xmlns="http://www.w3.org/2000/svg" viewBox="-198 -1128 5698 1408" role="img" aria-label="litestd">
<title>litestd</title>
<defs>
<linearGradient id="card" x1="0" y1="0" x2="0" y2="1">
<stop offset="0" stop-color="#FDFBF7"/>
<stop offset="1" stop-color="#F2EDE3"/>
</linearGradient>
</defs>
<rect x="-190" y="-1120" width="5682" height="1392" rx="200" fill="url(#card)" stroke="#E2DACB" stroke-width="16"/>
<path fill="#221E1A" d="M162 -848H385V-36H568V0H162V-36H345V-812H162ZM833 -588H1057V-36H1240V0H833V-36H1017V-552H833ZM1033 -697Q1013 -697 1001.5 -710.5Q990 -724 990 -750Q990 -776 1001.5 -789.5Q1013 -803 1033 -803Q1054 -803 1065 -789.5Q1076 -776 1076 -750Q1076 -724 1065 -710.5Q1054 -697 1033 -697ZM1603 -726V-588H1889V-553H1603V-177Q1603 -102 1635 -63Q1667 -24 1728 -24Q1793 -24 1829 -66Q1865 -108 1871 -190H1910Q1903 -90 1857 -39Q1811 12 1728 12Q1647 12 1605 -35.5Q1563 -83 1563 -177V-553H1411V-588H1563V-726ZM2144 -284Q2147 -161 2196 -95Q2247 -24 2345 -24Q2416 -24 2464.5 -65Q2513 -106 2532 -184H2572Q2556 -120 2524.5 -76.5Q2493 -33 2448 -10.5Q2403 12 2345 12Q2266 12 2212.5 -23.5Q2159 -59 2131 -128.5Q2103 -198 2103 -300Q2103 -395 2131 -462.5Q2159 -530 2211.5 -565Q2264 -600 2337 -600Q2409 -600 2458 -568Q2507 -536 2532 -473Q2557 -410 2557 -318Q2557 -310 2556.5 -301Q2556 -292 2555 -284ZM2144 -319H2519Q2519 -438 2473 -501Q2426 -564 2337 -564Q2246 -564 2195 -495Q2148 -430 2144 -319ZM2895 -194Q2908 -164 2935 -147.5Q2962 -131 3003 -131Q3049 -131 3072.5 -143.5Q3096 -156 3096 -179Q3096 -201 3080.5 -212Q3065 -223 3031 -226L2935 -236Q2830 -247 2777.5 -294.5Q2725 -342 2725 -429Q2725 -527 2796.5 -583.5Q2868 -640 2995 -640Q3131 -640 3203 -583.5Q3275 -527 3281 -414H3113Q3103 -451 3073.5 -470Q3044 -489 2995 -489Q2947 -489 2922 -476Q2897 -463 2897 -439Q2897 -418 2912.5 -407Q2928 -396 2962 -392L3057 -383Q3164 -372 3215.5 -325Q3267 -278 3267 -191Q3267 -125 3236 -77.5Q3205 -30 3146 -5Q3087 20 3003 20Q2874 20 2804 -34Q2734 -88 2725 -194ZM3654 -780V-620H3923V-462H3654V-220Q3654 -179 3667.5 -158.5Q3681 -138 3709 -138Q3738 -138 3755.5 -164Q3773 -190 3785 -250H3944Q3938 -119 3876.5 -49.5Q3815 20 3705 20Q3593 20 3533.5 -42Q3474 -104 3474 -220V-462H3365V-620H3474V-780ZM4235 16Q4160 16 4105 -24Q4050 -64 4020 -137Q3990 -210 3990 -310Q3990 -410 4020 -483.5Q4050 -557 4105 -596.5Q4160 -636 4235 -636Q4278 -636 4314 -616Q4350 -596 4367 -561H4407V-848H4587V0H4407V-59H4367Q4350 -25 4314.5 -4.5Q4279 16 4235 16ZM4291 -142Q4352 -142 4386 -186.5Q4420 -231 4420 -310Q4420 -390 4386 -434Q4352 -478 4291 -478Q4230 -478 4196.5 -434Q4163 -390 4163 -310Q4163 -230 4196.5 -186Q4230 -142 4291 -142Z"/>
<rect fill="#C8471F" x="4720" y="-848" width="420" height="848"/>
</svg>
